<?xml version="1.0" encoding="UTF-8"?>
<svg width="16px" height="16px" viewBox="0 0 16 16" version="1.1" xmlns="http://www.w3.org/2000/svg" xmlns:xlink="http://www.w3.org/1999/xlink">
    <!-- Generator: sketchtool 53.2 (72643) - https://sketchapp.com -->
    <title>5CA2D135-E614-41B6-90FB-E2801ADA310B@4x</title>
    <desc>Created with sketchtool.</desc>
    <g id="Redesign" stroke="none" stroke-width="1" fill="none" fill-rule="evenodd">
        <g id="Home---2019-Redesign" transform="translate(-435.000000, -5555.000000)" fill="#2983FF" fill-rule="nonzero">
            <g id="Footer" transform="translate(0.000000, 5454.000000)">
                <g id="Follow-Us">
                    <g transform="translate(435.000000, 61.000000)">
                        <path d="M14.818543,40 L1.18220096,40 C0.529237665,40 0,40.5130871 0,41.1463645 L0,54.8531519 C0,55.4864665 0.529423663,56 1.18220096,56 L14.818543,56 C15.4713575,56 16,55.4861317 16,54.8531519 L16,41.1463645 C16,40.5132731 15.4713575,40 14.818543,40 Z M4.85074387,53.3930875 L2.43325824,53.3930875 L2.43325824,46.1692838 L4.85074387,46.1692838 L4.85074387,53.3930875 Z M3.64224285,45.1823918 L3.62598666,45.1823918 C2.81529738,45.1823918 2.28977966,44.6279765 2.28977966,43.9338786 C2.28977966,43.2257939 2.83073518,42.686407 3.65749466,42.686407 C4.48432854,42.686407 4.99292047,43.2256451 5.00899066,43.9338786 C5.00899066,44.6281253 4.48451453,45.1823918 3.64224285,45.1823918 Z M13.5650678,53.3930875 L11.1483633,53.3930875 L11.1483633,49.5281016 C11.1483633,48.5569448 10.7982042,47.8942802 9.92423851,47.8942802 C9.25565142,47.8942802 8.85876967,48.3413389 8.68448989,48.77296 C8.61991151,48.927113 8.60391572,49.142719 8.60391572,49.3580273 L8.60391572,53.3929387 L6.18765766,53.3929387 C6.18765766,53.3929387 6.21927726,46.8466793 6.18765766,46.1691722 L8.60428771,46.1691722 L8.60428771,47.1933004 C8.92509643,46.7011936 9.49837833,45.9992095 10.7817248,45.9992095 C12.3723766,45.9992095 13.5650678,47.0310752 13.5650678,49.2509311 L13.5650678,53.3930875 Z M8.58866391,47.2916509 C8.60642391,47.2625312 8.63122391,47.2274916 8.65586391,47.193412 L8.65586391,47.2916509 L8.58866391,47.2916509 Z" id="ln"></path>
                    </g>
                </g>
            </g>
        </g>
    </g>
</svg>